<svg width="1808" height="643" viewBox="0 0 1808 643" fill="none" xmlns="http://www.w3.org/2000/svg">
<mask id="mask0" mask-type="alpha" maskUnits="userSpaceOnUse" x="126" y="134" width="475" height="375">
<path d="M210.619 415C213.391 412.23 217.148 410.675 221.067 410.675H582.594C589.18 410.675 592.477 418.639 587.818 423.294L516.381 494.675C513.61 497.444 509.852 499 505.933 499H144.406C137.82 499 134.523 491.036 139.182 486.381L210.619 415Z" stroke="#FF852D" stroke-width="20"/>
<path d="M210.619 148.325C213.391 145.556 217.148 144 221.067 144H582.594C589.18 144 592.477 151.964 587.818 156.619L516.381 228C513.61 230.77 509.852 232.325 505.933 232.325H144.406C137.82 232.325 134.523 224.361 139.182 219.706L210.619 148.325Z" stroke="#FF852D" stroke-width="20"/>
<path d="M516.381 280.813C513.61 278.044 509.852 276.488 505.933 276.488H144.406C137.82 276.488 134.523 284.452 139.182 289.107L210.619 360.488C213.391 363.258 217.148 364.813 221.067 364.813H582.594C589.18 364.813 592.477 356.849 587.818 352.194L516.381 280.813Z" stroke="#FF852D" stroke-width="20"/>
</mask>
<g mask="url(#mask0)">
<path d="M87 118H639V526H87V118Z" fill="url(#paint0_linear)"/>
</g>
<path fill-rule="evenodd" clip-rule="evenodd" d="M1001.06 148.258C1001.06 145.906 1002.96 144 1005.32 144H1021.63C1023.98 144 1025.88 145.906 1025.88 148.258V248.848C1025.88 251.2 1027.79 253.106 1030.14 253.106H1126.47C1130.2 253.106 1132.13 257.557 1129.58 260.276L1117.25 273.426C1116.45 274.284 1115.32 274.771 1114.14 274.771H1025.88H1005.32C1002.96 274.771 1001.06 272.865 1001.06 270.514V148.258Z" fill="white"/>
<path fill-rule="evenodd" clip-rule="evenodd" d="M745.062 222.041H691.157C691.154 222.041 691.15 222.038 691.15 222.034C691.15 222.03 691.147 222.027 691.143 222.027C690.795 222.036 690.445 222.041 690.094 222.041C668.503 222.041 651 204.571 651 183.02C651 161.47 668.503 144 690.094 144C690.445 144 690.795 144.005 691.143 144.014C691.147 144.014 691.15 144.011 691.15 144.007C691.15 144.003 691.154 144 691.157 144H773.226C777.104 144 778.963 148.761 776.111 151.389L757.882 168.184C757.096 168.908 756.066 169.311 754.997 169.311H690.068C682.496 169.311 676.358 175.449 676.358 183.02C676.358 190.592 682.496 196.73 690.068 196.73H748.141C748.177 196.73 748.206 196.76 748.206 196.796C748.206 196.83 748.233 196.859 748.267 196.862C768.347 198.501 784.131 215.286 784.131 235.751C784.131 257.301 766.628 274.771 745.037 274.771C743.992 274.771 742.957 274.73 741.932 274.65C741.897 274.647 741.867 274.675 741.867 274.711C741.867 274.744 741.84 274.771 741.806 274.771H660.413C656.458 274.771 654.64 269.849 657.645 267.278L677.276 250.483C678.048 249.823 679.029 249.461 680.044 249.461H708.424H745.062C752.634 249.461 758.772 243.323 758.772 235.751C758.772 228.179 752.634 222.041 745.062 222.041Z" fill="white"/>
<path fill-rule="evenodd" clip-rule="evenodd" d="M848.247 144C848.24 144 848.235 144.005 848.235 144.011C848.235 144.018 848.23 144.023 848.224 144.023C835.652 144.565 825.557 154.642 825.013 167.19C825.013 167.196 825.008 167.201 825.002 167.201C824.995 167.201 824.99 167.207 824.99 167.213V249.45C824.99 249.456 824.995 249.461 825.001 249.461C825.008 249.461 825.013 249.466 825.012 249.472C824.998 249.818 824.99 250.166 824.99 250.515C824.99 263.555 835.298 274.191 848.224 274.748C848.23 274.749 848.235 274.754 848.235 274.76C848.235 274.766 848.24 274.771 848.247 274.771H936.977C936.984 274.771 936.989 274.766 936.989 274.76C936.989 274.754 936.994 274.749 937 274.748C949.926 274.191 960.234 263.555 960.234 250.515C960.234 250.166 960.227 249.818 960.212 249.472C960.212 249.466 960.217 249.461 960.223 249.461C960.229 249.461 960.234 249.456 960.234 249.45V167.213C960.234 167.207 960.229 167.201 960.222 167.201C960.216 167.201 960.211 167.196 960.211 167.19C959.667 154.642 949.572 144.565 937 144.023C936.994 144.023 936.989 144.018 936.989 144.011C936.989 144.005 936.984 144 936.977 144H848.247ZM864.884 167.201C864.88 167.201 864.877 167.205 864.877 167.209C864.877 167.212 864.874 167.216 864.87 167.216C857.012 167.557 850.703 173.895 850.363 181.789C850.363 181.793 850.36 181.796 850.356 181.796C850.352 181.796 850.349 181.799 850.349 181.803V233.533C850.349 233.537 850.352 233.54 850.355 233.54C850.359 233.54 850.363 233.543 850.362 233.547C850.353 233.764 850.349 233.983 850.349 234.203C850.349 242.405 856.791 249.095 864.87 249.446C864.874 249.446 864.877 249.45 864.877 249.454C864.877 249.458 864.88 249.461 864.884 249.461H920.341C920.345 249.461 920.348 249.458 920.348 249.454C920.348 249.45 920.351 249.446 920.355 249.446C928.433 249.095 934.876 242.405 934.876 234.203C934.876 233.983 934.871 233.764 934.862 233.547C934.862 233.543 934.865 233.54 934.869 233.54C934.873 233.54 934.876 233.537 934.876 233.533V181.803C934.876 181.799 934.873 181.796 934.869 181.796C934.865 181.796 934.862 181.793 934.861 181.789C934.522 173.895 928.212 167.557 920.355 167.216C920.351 167.216 920.348 167.212 920.348 167.209C920.348 167.205 920.345 167.201 920.341 167.201H864.884Z" fill="white"/>
<path fill-rule="evenodd" clip-rule="evenodd" d="M1202.2 179.857V200.91C1202.2 203.261 1204.1 205.167 1206.45 205.167H1282.47C1284.82 205.167 1286.72 203.261 1286.72 200.91V179.857C1286.72 171.702 1280.1 165.092 1271.93 165.092H1216.99C1208.82 165.092 1202.2 171.702 1202.2 179.857ZM1290.98 274.771C1288.63 274.771 1286.72 272.865 1286.72 270.514V228.408C1286.72 226.056 1284.82 224.15 1282.47 224.15H1206.45C1204.1 224.15 1202.2 226.056 1202.2 228.408V270.514C1202.2 272.865 1200.29 274.771 1197.94 274.771H1181.1C1178.74 274.771 1176.84 272.865 1176.84 270.514V169.322C1176.84 169.316 1176.84 169.311 1176.85 169.311C1176.86 169.311 1176.86 169.305 1176.86 169.299C1176.85 168.953 1176.84 168.605 1176.84 168.256C1176.84 154.86 1187.72 144 1201.14 144C1201.49 144 1201.84 144.007 1202.18 144.022C1202.19 144.022 1202.2 144.017 1202.2 144.011C1202.2 144.005 1202.2 144 1202.21 144H1288.83C1288.83 144 1288.84 144.005 1288.84 144.011C1288.84 144.018 1288.84 144.023 1288.85 144.023C1301.77 144.581 1312.08 155.217 1312.08 168.256C1312.08 168.605 1312.07 168.953 1312.06 169.299C1312.06 169.305 1312.06 169.311 1312.07 169.311C1312.08 169.311 1312.08 169.316 1312.08 169.322V270.514C1312.08 272.865 1310.18 274.771 1307.82 274.771H1290.98Z" fill="white"/>
<path fill-rule="evenodd" clip-rule="evenodd" d="M1554.98 179.857V200.91C1554.98 203.261 1556.88 205.167 1559.23 205.167H1635.24C1637.6 205.167 1639.5 203.261 1639.5 200.91V179.857C1639.5 171.702 1632.88 165.092 1624.71 165.092H1569.77C1561.6 165.092 1554.98 171.702 1554.98 179.857ZM1643.76 274.771C1641.41 274.771 1639.5 272.865 1639.5 270.514V228.408C1639.5 226.056 1637.6 224.15 1635.24 224.15H1559.23C1556.88 224.15 1554.97 226.056 1554.97 228.408V270.514C1554.97 272.865 1553.07 274.771 1550.72 274.771H1533.87C1531.52 274.771 1529.62 272.865 1529.62 270.514V169.322C1529.62 169.316 1529.62 169.311 1529.63 169.311C1529.63 169.311 1529.64 169.305 1529.64 169.299C1529.62 168.953 1529.62 168.605 1529.62 168.256C1529.62 154.86 1540.5 144 1553.92 144C1554.27 144 1554.62 144.007 1554.96 144.022C1554.97 144.022 1554.97 144.017 1554.97 144.011C1554.97 144.005 1554.98 144 1554.99 144H1641.6C1641.61 144 1641.62 144.005 1641.62 144.011C1641.62 144.018 1641.62 144.023 1641.63 144.023C1654.55 144.581 1664.86 155.217 1664.86 168.256C1664.86 168.605 1664.85 168.953 1664.84 169.299C1664.84 169.305 1664.84 169.311 1664.85 169.311C1664.86 169.311 1664.86 169.316 1664.86 169.322V270.514C1664.86 272.865 1662.95 274.771 1660.6 274.771H1643.76Z" fill="white"/>
<path fill-rule="evenodd" clip-rule="evenodd" d="M1379.86 145.495C1379.05 144.546 1377.87 144 1376.62 144H1357.48C1355.13 144 1353.23 145.906 1353.23 148.258V270.514C1353.23 272.865 1355.13 274.771 1357.48 274.771H1374.33C1376.68 274.771 1378.59 272.865 1378.59 270.514V189.097C1378.59 185.163 1383.46 183.334 1386.05 186.297L1463.07 274.508C1463.1 274.537 1463.11 274.574 1463.11 274.612C1463.11 274.7 1463.18 274.771 1463.27 274.771H1463.3H1484.21C1486.56 274.771 1488.47 272.865 1488.47 270.514V148.258C1488.47 145.906 1486.56 144 1484.21 144H1467.37C1465.02 144 1463.11 145.906 1463.11 148.258V231.563C1463.11 235.521 1458.18 237.338 1455.62 234.326L1379.86 145.495Z" fill="white"/>
<path d="M651 496.015V317.398H720.129V335.26H675.957V394.799H710.191V412.44H675.957V496.015H651Z" fill="white"/>
<path d="M782.992 498C770.918 498 761.274 495.648 754.059 490.943C746.844 486.239 741.691 479.55 738.599 470.877C735.507 462.056 733.961 451.765 733.961 440.004V372.306C733.961 360.546 735.507 350.475 738.599 342.096C741.838 333.569 746.991 327.101 754.059 322.69C761.274 318.133 770.918 315.854 782.992 315.854C795.065 315.854 804.636 318.133 811.704 322.69C818.771 327.248 823.851 333.716 826.943 342.096C830.182 350.475 831.802 360.546 831.802 372.306V440.225C831.802 451.839 830.182 461.982 826.943 470.656C823.851 479.33 818.771 486.092 811.704 490.943C804.636 495.648 795.065 498 782.992 498ZM782.992 478.374C789.618 478.374 794.624 477.051 798.01 474.405C801.397 471.612 803.679 467.789 804.857 462.938C806.035 457.94 806.624 452.133 806.624 445.517V367.234C806.624 360.619 806.035 354.959 804.857 350.255C803.679 345.404 801.397 341.728 798.01 339.229C794.624 336.583 789.618 335.26 782.992 335.26C776.366 335.26 771.286 336.583 767.752 339.229C764.366 341.728 762.084 345.404 760.906 350.255C759.728 354.959 759.139 360.619 759.139 367.234V445.517C759.139 452.133 759.728 457.94 760.906 462.938C762.084 467.789 764.366 471.612 767.752 474.405C771.286 477.051 776.366 478.374 782.992 478.374Z" fill="white"/>
<path d="M902.491 498C889.534 498 879.595 495.427 872.675 490.282C865.755 485.136 861.043 477.933 858.54 468.671C856.037 459.263 854.785 448.31 854.785 435.815V317.398H878.638V436.917C878.638 444.562 879.153 451.545 880.184 457.866C881.215 464.188 883.423 469.186 886.81 472.861C890.344 476.536 895.571 478.374 902.491 478.374C909.559 478.374 914.786 476.536 918.172 472.861C921.559 469.186 923.767 464.188 924.798 457.866C925.829 451.545 926.344 444.562 926.344 436.917V317.398H949.976V435.815C949.976 448.31 948.724 459.263 946.221 468.671C943.718 477.933 939.007 485.136 932.086 490.282C925.313 495.427 915.448 498 902.491 498Z" fill="white"/>
<path d="M976.251 496.015V317.398H993.258L1044.06 436.035V317.398H1064.82V496.015H1048.91L997.454 374.07V496.015H976.251Z" fill="white"/>
<path d="M1092.94 496.015V317.398H1131.81C1145.06 317.398 1155.51 319.456 1163.17 323.573C1170.97 327.542 1176.5 333.569 1179.73 341.655C1183.12 349.74 1184.81 359.81 1184.81 371.865V437.579C1184.81 450.222 1183.12 460.88 1179.73 469.553C1176.5 478.227 1171.12 484.842 1163.61 489.4C1156.25 493.81 1146.31 496.015 1133.8 496.015H1092.94ZM1117.89 478.154H1132.03C1141.16 478.154 1147.64 476.389 1151.46 472.861C1155.29 469.333 1157.58 464.188 1158.31 457.425C1159.19 450.663 1159.64 442.504 1159.64 432.948V374.952C1159.64 365.691 1159.05 358.193 1157.87 352.46C1156.69 346.727 1154.11 342.537 1150.14 339.891C1146.16 337.244 1139.91 335.921 1131.37 335.921H1117.89V478.154Z" fill="white"/>
<path d="M1199.69 496.015L1237.68 317.398H1261.75L1299.96 496.015H1276.33L1268.15 451.03H1231.71L1223.1 496.015H1199.69ZM1235.03 433.168H1264.84L1249.82 352.68L1235.03 433.168Z" fill="white"/>
<path d="M1330.65 496.015V335.921H1300.39V317.398H1384.98V335.921H1355.61V496.015H1330.65Z" fill="white"/>
<path d="M1403.55 496.015V317.398H1428.07V496.015H1403.55Z" fill="white"/>
<path d="M1502.73 498C1490.66 498 1481.01 495.648 1473.8 490.943C1466.58 486.239 1461.43 479.55 1458.34 470.877C1455.24 462.056 1453.7 451.765 1453.7 440.004V372.306C1453.7 360.546 1455.24 350.475 1458.34 342.096C1461.58 333.569 1466.73 327.101 1473.8 322.69C1481.01 318.133 1490.66 315.854 1502.73 315.854C1514.8 315.854 1524.37 318.133 1531.44 322.69C1538.51 327.248 1543.59 333.716 1546.68 342.096C1549.92 350.475 1551.54 360.546 1551.54 372.306V440.225C1551.54 451.839 1549.92 461.982 1546.68 470.656C1543.59 479.33 1538.51 486.092 1531.44 490.943C1524.37 495.648 1514.8 498 1502.73 498ZM1502.73 478.374C1509.36 478.374 1514.36 477.051 1517.75 474.405C1521.13 471.612 1523.42 467.789 1524.59 462.938C1525.77 457.94 1526.36 452.133 1526.36 445.517V367.234C1526.36 360.619 1525.77 354.959 1524.59 350.255C1523.42 345.404 1521.13 341.728 1517.75 339.229C1514.36 336.583 1509.36 335.26 1502.73 335.26C1496.1 335.26 1491.02 336.583 1487.49 339.229C1484.1 341.728 1481.82 345.404 1480.64 350.255C1479.47 354.959 1478.88 360.619 1478.88 367.234V445.517C1478.88 452.133 1479.47 457.94 1480.64 462.938C1481.82 467.789 1484.1 471.612 1487.49 474.405C1491.02 477.051 1496.1 478.374 1502.73 478.374Z" fill="white"/>
<path d="M1576.07 496.015V317.398H1593.08L1643.87 436.035V317.398H1664.63V496.015H1648.73L1597.27 374.07V496.015H1576.07Z" fill="white"/>
<defs>
<linearGradient id="paint0_linear" x1="696.807" y1="-82.3291" x2="-0.194951" y2="731.013" gradientUnits="userSpaceOnUse">
<stop stop-color="#FF0000"/>
<stop offset="1" stop-color="#FFC700"/>
</linearGradient>
</defs>
</svg>
